<?xml version="1.0" encoding="utf-8"?>
<!-- Generator: Adobe Illustrator 16.0.0, SVG Export Plug-In . SVG Version: 6.00 Build 0)  -->
<!DOCTYPE svg PUBLIC "-//W3C//DTD SVG 1.1//EN" "http://www.w3.org/Graphics/SVG/1.1/DTD/svg11.dtd">
<svg version="1.1" id="Layer_1" xmlns="http://www.w3.org/2000/svg" xmlns:xlink="http://www.w3.org/1999/xlink" x="0px" y="0px"
	 width="10.344px" height="10.346px" viewBox="0 0 10.344 10.346" enable-background="new 0 0 10.344 10.346" xml:space="preserve">
<g>
	<path fill="#232323" d="M6.854,9.256H3.543V8.8c0.12-0.064,0.244-0.119,0.372-0.162c0.128-0.045,0.268-0.087,0.42-0.127V4.096
		L3.543,4V3.544c0.12-0.048,0.27-0.096,0.45-0.144c0.18-0.048,0.37-0.09,0.569-0.126c0.2-0.036,0.396-0.068,0.589-0.096
		c0.191-0.028,0.359-0.05,0.504-0.066h0.407V8.51c0.16,0.041,0.305,0.082,0.433,0.127C6.623,8.681,6.743,8.735,6.854,8.8V9.256z
		 M4.155,1.288c0-0.28,0.095-0.5,0.284-0.66s0.435-0.24,0.735-0.24s0.546,0.08,0.735,0.24s0.285,0.38,0.285,0.66
		c0,0.272-0.096,0.488-0.285,0.648s-0.435,0.24-0.735,0.24s-0.546-0.08-0.735-0.24S4.155,1.56,4.155,1.288z"/>
</g>
</svg>
