<?xml version="1.0" encoding="utf-8"?>
<!-- Generator: Adobe Illustrator 16.0.0, SVG Export Plug-In . SVG Version: 6.00 Build 0)  -->
<!DOCTYPE svg PUBLIC "-//W3C//DTD SVG 1.1//EN" "http://www.w3.org/Graphics/SVG/1.1/DTD/svg11.dtd">
<svg version="1.1" xmlns="http://www.w3.org/2000/svg" xmlns:xlink="http://www.w3.org/1999/xlink" x="0px" y="0px" width="88px"
	 height="88px" viewBox="0 0 88 88" enable-background="new 0 0 88 88" xml:space="preserve">
<g id="Layer_2">
</g>
<g id="Layer_1">
</g>
<g id="Layer_4">
</g>
<g id="Layer_3">
	<path fill="#FFFFFF" d="M75.421,23.508c-8.144-8.144-21.349-8.144-29.492,0c-8.145,8.145-8.145,21.349,0,29.492
		c8.144,8.145,21.349,8.145,29.492,0C83.566,44.856,83.566,31.652,75.421,23.508z M49.615,49.314c-6.107-6.109-6.107-16.012,0-22.12
		c6.108-6.108,16.012-6.107,22.12,0c6.106,6.108,6.106,16.011,0,22.12C65.626,55.422,55.724,55.422,49.615,49.314z"/>
	<g>
		<line fill="#231F20" x1="46.117" y1="52.033" x2="22.642" y2="75.507"/>
		<path fill="#FFFFFF" d="M22.642,78.62c-0.796,0-1.594-0.304-2.2-0.911c-1.216-1.217-1.216-3.187,0-4.402l23.475-23.475
			c1.215-1.215,3.186-1.215,4.401,0c1.216,1.216,1.216,3.187,0,4.402L24.843,77.709C24.234,78.316,23.438,78.62,22.642,78.62z"/>
	</g>
	<path fill="#FFFFFF" d="M71.083,40.687c-1.833,0-3.319-1.487-3.319-3.32c0-1.267,0.709-2.366,1.752-2.927
		c-1.154-0.771-2.542-1.223-4.034-1.223c-4.011,0-7.261,3.251-7.261,7.262c0,4.01,3.25,7.262,7.261,7.262
		c4.01,0,7.262-3.252,7.262-7.262c0-0.079-0.003-0.159-0.006-0.237C72.25,40.522,71.686,40.687,71.083,40.687z"/>
</g>
</svg>
