<?xml version="1.0" encoding="utf-8"?>
<!-- Generator: Adobe Illustrator 16.0.0, SVG Export Plug-In . SVG Version: 6.00 Build 0)  -->
<!DOCTYPE svg PUBLIC "-//W3C//DTD SVG 1.1//EN" "http://www.w3.org/Graphics/SVG/1.1/DTD/svg11.dtd">
<svg version="1.1" id="Layer_1" xmlns="http://www.w3.org/2000/svg" xmlns:xlink="http://www.w3.org/1999/xlink" x="0px" y="0px"
	 width="40px" height="40px" viewBox="0 0 40 40" enable-background="new 0 0 40 40" xml:space="preserve">
<path fill="#232323" d="M19.401,8.087c0.236,0.146,0.5,0.359,0.794,0.64c0.282,0.292,0.557,0.653,0.828,1.078
	c0.258,0.403,0.488,0.877,0.689,1.426c0.166,0.547,0.248,1.187,0.248,1.918c-0.021,1.34-0.319,2.412-0.889,3.216
	c-0.278,0.39-0.574,0.749-0.886,1.078c-0.347,0.328-0.714,0.665-1.104,1.005c-0.225,0.23-0.43,0.494-0.619,0.786
	c-0.224,0.305-0.335,0.657-0.335,1.059c0,0.392,0.115,0.712,0.344,0.968c0.194,0.246,0.383,0.459,0.567,0.641l1.271,1.041
	c0.789,0.648,1.481,1.359,2.078,2.137c0.561,0.795,0.854,1.828,0.877,3.107c0,1.816-0.803,3.424-2.405,4.826
	c-1.661,1.449-4.061,2.197-7.195,2.248c-2.625-0.025-4.583-0.586-5.878-1.678c-1.304-1.023-1.958-2.244-1.958-3.666
	c0-0.693,0.211-1.467,0.639-2.316c0.411-0.852,1.158-1.6,2.238-2.244c1.212-0.691,2.487-1.154,3.823-1.385
	c1.322-0.195,2.42-0.305,3.294-0.328c-0.271-0.357-0.511-0.734-0.723-1.139c-0.247-0.393-0.368-0.863-0.368-1.414
	c0-0.33,0.045-0.609,0.139-0.828c0.083-0.232,0.16-0.446,0.23-0.643c-0.424,0.049-0.827,0.073-1.203,0.073
	c-1.995-0.024-3.515-0.651-4.561-1.882c-1.095-1.147-1.643-2.48-1.643-4.001c0-1.841,0.775-3.509,2.327-5.008
	c1.063-0.876,2.171-1.447,3.318-1.718c1.137-0.231,2.202-0.347,3.195-0.347h7.491l-2.313,1.351h-2.312V8.087z M20.847,29.652
	c0-0.951-0.31-1.781-0.929-2.486c-0.657-0.67-1.683-1.492-3.078-2.469c-0.24-0.023-0.519-0.037-0.842-0.037
	c-0.191-0.021-0.68,0-1.468,0.074c-0.774,0.109-1.569,0.287-2.38,0.529c-0.191,0.074-0.458,0.184-0.804,0.33
	C11,25.752,10.648,25.977,10.29,26.27c-0.347,0.305-0.639,0.682-0.877,1.133c-0.276,0.475-0.411,1.049-0.411,1.719
	c0,1.316,0.594,2.4,1.788,3.252c1.134,0.854,2.683,1.291,4.652,1.318c1.765-0.025,3.114-0.418,4.042-1.172
	C20.394,31.777,20.847,30.82,20.847,29.652z M15.624,18.67c0.986-0.037,1.808-0.391,2.466-1.063
	c0.318-0.476,0.521-0.964,0.612-1.465c0.055-0.501,0.082-0.921,0.082-1.264c0-1.476-0.379-2.966-1.133-4.467
	c-0.354-0.72-0.821-1.307-1.398-1.758c-0.592-0.425-1.27-0.651-2.036-0.676c-1.016,0.025-1.859,0.434-2.533,1.227
	c-0.567,0.83-0.839,1.758-0.813,2.783c0,1.354,0.396,2.764,1.188,4.229c0.385,0.683,0.878,1.263,1.487,1.739
	C14.15,18.433,14.844,18.67,15.624,18.67z"/>
<polygon fill="#232323" points="34.172,10.828 30.244,10.828 30.244,6.896 28.338,6.896 28.338,10.828 24.408,10.828 24.408,12.732 
	28.338,12.732 28.338,16.663 30.244,16.663 30.244,12.732 34.172,12.732 "/>
</svg>
