<?xml version="1.0" encoding="utf-8"?>
<!-- Generator: Adobe Illustrator 16.0.0, SVG Export Plug-In . SVG Version: 6.00 Build 0)  -->
<!DOCTYPE svg PUBLIC "-//W3C//DTD SVG 1.1//EN" "http://www.w3.org/Graphics/SVG/1.1/DTD/svg11.dtd">
<svg version="1.1" id="Layer_1" xmlns="http://www.w3.org/2000/svg" xmlns:xlink="http://www.w3.org/1999/xlink" x="0px" y="0px"
	 width="40px" height="40px" viewBox="0 0 40 40" enable-background="new 0 0 40 40" xml:space="preserve">
<path fill="#232323" d="M20.261,5.436c-8.052,0-14.581,6.528-14.581,14.582c0,5.97,3.59,11.1,8.729,13.355
	c-0.042-1.02-0.008-2.242,0.252-3.348c0.281-1.186,1.877-7.948,1.877-7.948s-0.467-0.929-0.467-2.305
	c0-2.16,1.254-3.774,2.814-3.774c1.325,0,1.966,0.996,1.966,2.188c0,1.333-0.851,3.327-1.287,5.174
	c-0.366,1.547,0.776,2.809,2.3,2.809c2.763,0,4.623-3.547,4.623-7.752c0-3.194-2.152-5.586-6.066-5.586
	c-4.422,0-7.178,3.297-7.178,6.981c0,1.271,0.375,2.167,0.962,2.86c0.27,0.319,0.308,0.446,0.208,0.813
	c-0.067,0.271-0.229,0.914-0.296,1.17c-0.097,0.371-0.395,0.502-0.729,0.365c-2.038-0.83-2.986-3.062-2.986-5.569
	c0-4.142,3.492-9.109,10.421-9.109c5.565,0,9.231,4.029,9.231,8.354c0,5.72-3.182,9.992-7.869,9.992
	c-1.575,0-3.055-0.851-3.561-1.816c0,0-0.848,3.359-1.025,4.008c-0.31,1.123-0.915,2.248-1.468,3.124
	c1.31,0.386,2.696,0.597,4.132,0.597c8.052,0,14.579-6.527,14.579-14.581C34.84,11.963,28.313,5.436,20.261,5.436z"/>
</svg>
