<?xml version="1.0" encoding="utf-8"?>
<!-- Generator: Adobe Illustrator 16.0.0, SVG Export Plug-In . SVG Version: 6.00 Build 0)  -->
<!DOCTYPE svg PUBLIC "-//W3C//DTD SVG 1.1//EN" "http://www.w3.org/Graphics/SVG/1.1/DTD/svg11.dtd">
<svg version="1.1" id="Layer_1" xmlns="http://www.w3.org/2000/svg" xmlns:xlink="http://www.w3.org/1999/xlink" x="0px" y="0px"
	 width="91px" height="91px" viewBox="0 0 91 91" enable-background="new 0 0 91 91" xml:space="preserve">
<g>
	<path fill="#E9AA00" d="M9.877,51.008H8.553l2.141-6.006h1.45l2.116,6.006h-1.364l-0.384-1.238h-2.218L9.877,51.008z
		 M10.628,48.732h1.532l-0.748-2.378h-0.016L10.628,48.732z"/>
	<path fill="#E9AA00" d="M17.485,45.002h3.036c0.618,0,1.088,0.166,1.409,0.497c0.321,0.33,0.482,0.73,0.482,1.198
		c0,0.697-0.309,1.174-0.927,1.431c0.286,0.108,0.484,0.266,0.594,0.471c0.111,0.206,0.166,0.577,0.166,1.114
		c0,0.533,0.02,0.847,0.06,0.941c0.04,0.094,0.108,0.158,0.206,0.193v0.16h-1.385c-0.09-0.271-0.135-0.66-0.135-1.169
		c0-0.427-0.029-0.703-0.086-0.827s-0.152-0.214-0.284-0.27c-0.132-0.056-0.336-0.084-0.611-0.084h-1.295v2.35h-1.23V45.002z
		 M20.186,47.646c0.329,0,0.574-0.063,0.733-0.188c0.16-0.125,0.239-0.336,0.239-0.633c0-0.245-0.074-0.438-0.223-0.578
		s-0.367-0.21-0.656-0.21h-1.564v1.609H20.186z"/>
	<path fill="#E9AA00" d="M29.714,46.967c-0.155-0.691-0.599-1.037-1.332-1.037c-0.455,0-0.817,0.186-1.086,0.556
		c-0.27,0.37-0.405,0.885-0.405,1.544c0,0.618,0.131,1.114,0.393,1.489c0.261,0.374,0.627,0.562,1.099,0.562
		c0.719,0,1.163-0.377,1.332-1.132h1.254c-0.09,0.615-0.359,1.14-0.809,1.571c-0.45,0.432-1.05,0.647-1.802,0.647
		c-0.839,0-1.506-0.277-2.002-0.831c-0.496-0.555-0.743-1.329-0.743-2.322c0-0.951,0.247-1.717,0.739-2.299
		c0.493-0.581,1.167-0.872,2.022-0.872c0.749,0,1.354,0.202,1.816,0.606c0.462,0.404,0.721,0.911,0.778,1.518H29.714z"/>
	<path fill="#E9AA00" d="M39.271,45.002v6.006h-1.254v-2.692h-2.345v2.692h-1.254v-6.006h1.254v2.275h2.345v-2.275H39.271z"/>
	<path fill="#E9AA00" d="M44.26,51.008h-1.254v-6.006h1.254V51.008z"/>
	<path fill="#E9AA00" d="M50.573,51.008h-1.254v-4.943h-1.813v-1.063h4.886v1.063h-1.818V51.008z"/>
	<path fill="#E9AA00" d="M60.053,46.064h-3.187v1.262h2.929v1.063h-2.929v1.557h3.33v1.063h-4.56v-6.006h4.416V46.064z"/>
	<path fill="#E9AA00" d="M67.46,46.967c-0.154-0.691-0.598-1.037-1.331-1.037c-0.455,0-0.817,0.186-1.087,0.556
		s-0.404,0.885-0.404,1.544c0,0.618,0.131,1.114,0.393,1.489c0.261,0.374,0.627,0.562,1.099,0.562c0.719,0,1.163-0.377,1.331-1.132
		h1.255c-0.091,0.615-0.359,1.14-0.81,1.571c-0.448,0.432-1.049,0.647-1.801,0.647c-0.84,0-1.506-0.277-2.002-0.831
		c-0.496-0.555-0.744-1.329-0.744-2.322c0-0.951,0.247-1.717,0.74-2.299c0.492-0.581,1.166-0.872,2.021-0.872
		c0.75,0,1.355,0.202,1.816,0.606c0.462,0.404,0.721,0.911,0.778,1.518H67.46z"/>
	<path fill="#E9AA00" d="M74.575,51.008H73.32v-4.943h-1.813v-1.063h4.885v1.063h-1.816V51.008z"/>
	<path fill="#E9AA00" d="M80.409,49.157c0,0.296,0.109,0.533,0.329,0.708c0.22,0.176,0.533,0.264,0.941,0.264
		c0.409,0,0.72-0.065,0.935-0.198c0.213-0.132,0.32-0.325,0.32-0.582c0-0.152-0.056-0.284-0.166-0.396
		c-0.11-0.111-0.372-0.216-0.785-0.314l-1.022-0.236c-0.646-0.152-1.085-0.36-1.317-0.623s-0.35-0.626-0.35-1.089
		c0-0.542,0.193-0.985,0.578-1.33c0.386-0.344,0.964-0.517,1.734-0.517c0.766,0,1.346,0.193,1.742,0.58s0.596,0.84,0.599,1.36
		h-1.205c-0.026-0.294-0.142-0.518-0.343-0.672c-0.202-0.154-0.498-0.23-0.887-0.23c-0.313,0-0.566,0.064-0.758,0.193
		c-0.191,0.13-0.288,0.305-0.288,0.525c0,0.152,0.042,0.279,0.127,0.38c0.084,0.101,0.22,0.174,0.409,0.221l1.604,0.396
		c0.58,0.142,0.98,0.345,1.201,0.61s0.331,0.598,0.331,0.995c0,0.653-0.227,1.144-0.681,1.473c-0.453,0.328-1.015,0.492-1.685,0.492
		c-0.866,0-1.512-0.185-1.935-0.554c-0.424-0.369-0.636-0.854-0.636-1.456H80.409z"/>
</g>
<path fill="#E9AA00" d="M24.591,38.135c-0.18-0.97-0.27-2.022-0.27-3.159c0-3.242,0.663-5.773,1.989-7.596
	c1.326-1.821,3.107-2.731,5.344-2.731c3.603,0,5.787,1.7,6.55,5.103h6.168c-0.281-2.986-1.557-5.475-3.828-7.464
	c-2.27-1.989-5.247-2.984-8.931-2.984c-4.207,0-7.521,1.43-9.945,4.29c-2.425,2.86-3.637,6.627-3.637,11.302
	c0,1.14,0.069,2.218,0.201,3.24H24.591z"/>
<polygon fill="#E9AA00" points="56.083,38.135 59.765,26.737 59.845,26.737 63.429,38.135 69.802,38.135 63.441,20.087
	56.309,20.087 49.875,38.135 "/>
<path fill="#E9AA00" d="M65.706,57.398v5.956c0,1.889-0.502,3.303-1.507,4.239C63.194,68.532,61.795,69,60,69
	c-1.781,0-3.147-0.505-4.099-1.517c-0.951-1.011-1.427-2.481-1.427-4.41v-5.675h-6.309v6.036c0,3.563,1.058,6.252,3.174,8.067
	s4.956,2.723,8.52,2.723c4.059,0,7.096-0.944,9.112-2.833c2.016-1.889,3.023-4.648,3.023-8.277v-5.716H65.706z"/>
<path fill="#E9AA00" d="M37.132,57.398c0.014,0.329,0.022,0.664,0.022,1.014c0,3.081-0.589,5.506-1.768,7.273
	c-1.179,1.769-2.826,2.651-4.942,2.651h-6.008V57.398h-6.048v16.043h12.798c3.898,0,6.915-1.42,9.052-4.261
	c2.137-2.839,3.205-6.576,3.205-11.211c0-0.195-0.013-0.38-0.018-0.571H37.132z"/>
</svg>
